<svg width="18" height="18" viewBox="0 0 24 24" fill="none" xmlns="http://www.w3.org/2000/svg"><path d="M6.5 12.5L11.5 17.5M6.5 12.5L11.8349 6.83172C13.5356 5.02464 15.9071 4 18.3887 4H20V5.61135C20 8.09292 18.9754 10.4644 17.1683 12.1651L11.5 17.5M6.5 12.5L2 11L5.12132 7.87868C5.68393 7.31607 6.44699 7 7.24264 7H11M11.5 17.5L13 22L16.1213 18.8787C16.6839 18.3161 17 17.553 17 16.7574V13" stroke="currentColor" stroke-linecap="square"></path><path d="M4.5 16.5C4.5 16.5 4 18 4 20C6 20 7.5 19.5 7.5 19.5" stroke="currentColor"></path></svg>