<svg xmlns="http://www.w3.org/2000/svg" xmlns:xlink="http://www.w3.org/1999/xlink" viewBox="0 0 24 24" width="24" height="24" preserveAspectRatio="xMidYMid meet"><defs><clipPath id="__lottie_element_2"><rect width="24" height="24" x="0" y="0"></rect></clipPath><clipPath id="__lottie_element_7"><path fill="#ffffff" clip-rule="nonzero" d=" M-12.222000122070312,-12.222000122070312 C-12.222000122070312,-12.222000122070312 -12.111000061035156,12.111000061035156 -12.111000061035156,12.111000061035156 C-12.111000061035156,12.111000061035156 12.055999755859375,12.055999755859375 12.055999755859375,12.055999755859375 C12.055999755859375,12.055999755859375 12.083000183105469,-12.083000183105469 12.083000183105469,-12.083000183105469 C12.083000183105469,-12.083000183105469 -12.222000122070312,-12.222000122070312 -12.222000122070312,-12.222000122070312" fill-opacity="1"></path></clipPath></defs><g clip-path="url(#__lottie_element_2)"><g clip-path="url(#__lottie_element_7)" style="display: block;" transform="matrix(1,0,0,1,12,12)" opacity="1"><g opacity="1" transform="matrix(1,0,0,1,0,0)"><path stroke-linecap="square" stroke-linejoin="miter" fill-opacity="0" stroke-miterlimit="4" stroke="rgb(255,255,255)" stroke-opacity="1" stroke-width="2" d=" M-2,-8 C-3.864000082015991,-8 -4.796000003814697,-8 -5.531000137329102,-7.696000099182129 C-6.511000156402588,-7.289999961853027 -7.289999961853027,-6.511000156402588 -7.696000099182129,-5.531000137329102 C-8,-4.796000003814697 -8,-3.864000082015991 -8,-2 C-8,-2 -8,1.600000023841858 -8,1.600000023841858 C-8,3.8399999141693115 -8,4.960000038146973 -7.564000129699707,5.815999984741211 C-7.181000232696533,6.568999767303467 -6.568999767303467,7.181000232696533 -5.815999984741211,7.564000129699707 C-4.960000038146973,8 -3.8399999141693115,8 -1.600000023841858,8 C-1.600000023841858,8 2,8 2,8 C3.864000082015991,8 4.796000003814697,8 5.531000137329102,7.696000099182129 C6.511000156402588,7.289999961853027 7.289999961853027,6.511000156402588 7.696000099182129,5.531000137329102 C8,4.796000003814697 8,3.864000082015991 8,2"></path></g></g><g style="display: block;" transform="matrix(1,0,0,1,14.560999870300293,9.439000129699707)" opacity="1"><g opacity="1" transform="matrix(1,0.00015605533553753048,-0.00015605533553753048,1,-0.0024856848176568747,0.009933797642588615)"><path stroke-linecap="square" stroke-linejoin="miter" fill-opacity="0" stroke-miterlimit="4" stroke="rgb(255,255,255)" stroke-opacity="1" stroke-width="2" d=" M4.939000129699707,-1.9390000104904175 C4.939000129699707,-1.9390000104904175 -2.121000051498413,5.120999813079834 -2.121000051498413,5.120999813079834 C-2.4019999504089355,5.4019999504089355 -2.7839999198913574,5.560999870300293 -3.181999921798706,5.560999870300293 C-3.181999921798706,5.560999870300293 -5.560999870300293,5.560999870300293 -5.560999870300293,5.560999870300293 C-5.560999870300293,5.560999870300293 -5.560999870300293,3.181999921798706 -5.560999870300293,3.181999921798706 C-5.560999870300293,2.7839999198913574 -5.4019999504089355,2.4019999504089355 -5.120999813079834,2.121000051498413 C-5.120999813079834,2.121000051498413 1.9390000104904175,-4.939000129699707 1.9390000104904175,-4.939000129699707 C2.7669999599456787,-5.767000198364258 4.111000061035156,-5.767000198364258 4.939000129699707,-4.939000129699707 C5.767000198364258,-4.111000061035156 5.767000198364258,-2.7669999599456787 4.939000129699707,-1.9390000104904175z"></path></g></g></g></svg>