<svg xmlns="http://www.w3.org/2000/svg" xmlns:xlink="http://www.w3.org/1999/xlink" viewBox="0 0 24 24" width="24" height="24" preserveAspectRatio="xMidYMid meet"><defs><clipPath id="__lottie_element_80"><rect width="24" height="24" x="0" y="0"></rect></clipPath></defs><g clip-path="url(#__lottie_element_80)"><g style="display: block;" transform="matrix(1,0,0,1,12,15.25)" opacity="1"><g opacity="1" transform="matrix(1,0,0,1,0,0)"><path stroke-linecap="butt" stroke-linejoin="miter" fill-opacity="0" stroke-miterlimit="4" stroke="rgb(255,255,255)" stroke-opacity="1" stroke-width="2" d=" M-8.5,-4.25 C-8.5,-4.25 8.5,-4.25 8.5,-4.25 C8.5,-4.25 8.5,-2.1500000953674316 8.5,-2.1500000953674316 C8.5,0.09000000357627869 8.5,1.2100000381469727 8.064000129699707,2.065999984741211 C7.681000232696533,2.819000005722046 7.068999767303467,3.430999994277954 6.315999984741211,3.813999891281128 C5.460000038146973,4.25 4.340000152587891,4.25 2.0999999046325684,4.25 C2.0999999046325684,4.25 -2.0999999046325684,4.25 -2.0999999046325684,4.25 C-4.340000152587891,4.25 -5.460000038146973,4.25 -6.315999984741211,3.813999891281128 C-7.068999767303467,3.430999994277954 -7.681000232696533,2.819000005722046 -8.064000129699707,2.065999984741211 C-8.5,1.2100000381469727 -8.5,0.09000000357627869 -8.5,-2.1500000953674316 C-8.5,-2.1500000953674316 -8.5,-4.25 -8.5,-4.25z"></path></g></g><g style="display: block;" transform="matrix(1,0,0,1,12,8.25)" opacity="1"><g opacity="1" transform="matrix(1,0,0,1,0,0)"><path stroke-linecap="butt" stroke-linejoin="miter" fill-opacity="0" stroke-miterlimit="4" stroke="rgb(255,255,255)" stroke-opacity="1" stroke-width="2" d=" M8.5,3.75 C8.5,3.75 8.5,-1.75 8.5,-1.75 C8.5,-1.75 1,-1.75 1,-1.75 C1,-1.75 -3,-3.75 -3,-3.75 C-3,-3.75 -8.5,-3.75 -8.5,-3.75 C-8.5,-3.75 -8.5,3.75 -8.5,3.75"></path></g></g></g></svg>