<svg xmlns="http://www.w3.org/2000/svg" xmlns:xlink="http://www.w3.org/1999/xlink" viewBox="0 0 24 24" width="24" height="24" preserveAspectRatio="xMidYMid meet"><defs><clipPath id="__lottie_element_15"><rect width="24" height="24" x="0" y="0"></rect></clipPath><clipPath id="__lottie_element_20"><path fill="#ffffff" clip-rule="nonzero" d=" M-11.027999877929688,-3.9719998836517334 C-11.027999877929688,-3.9719998836517334 -11.083000183105469,11.305999755859375 -11.083000183105469,11.305999755859375 C-11.083000183105469,11.305999755859375 4.5279998779296875,11.75 4.5279998779296875,11.75 C4.5279998779296875,11.75 4.25,-4.193999767303467 4.25,-4.193999767303467 C4.25,-4.193999767303467 -11.027999877929688,-3.9719998836517334 -11.027999877929688,-3.9719998836517334" fill-opacity="1"></path></clipPath></defs><g clip-path="url(#__lottie_element_15)"><g style="display: block;" transform="matrix(1,0,0,1,12,12)" opacity="1"><g opacity="1" transform="matrix(1,0,0,1,0,0)"><path stroke-linecap="butt" stroke-linejoin="miter" fill-opacity="0" stroke-miterlimit="4" stroke="rgb(255,255,255)" stroke-opacity="1" stroke-width="2" d=" M-7.564000129699707,-5.815999984741211 C-8,-4.960000038146973 -8,-3.8399999141693115 -8,-1.600000023841858 C-8,-1.600000023841858 -8,1.600000023841858 -8,1.600000023841858 C-8,3.8399999141693115 -8,4.960000038146973 -7.564000129699707,5.815999984741211 C-7.181000232696533,6.568999767303467 -6.568999767303467,7.181000232696533 -5.815999984741211,7.564000129699707 C-4.960000038146973,8 -3.8399999141693115,8 -1.600000023841858,8 C-1.600000023841858,8 1.600000023841858,8 1.600000023841858,8 C3.8399999141693115,8 4.960000038146973,8 5.815999984741211,7.564000129699707 C6.568999767303467,7.181000232696533 7.181000232696533,6.568999767303467 7.564000129699707,5.815999984741211 C8,4.960000038146973 8,3.8399999141693115 8,1.600000023841858 C8,1.600000023841858 8,-1.600000023841858 8,-1.600000023841858 C8,-3.8399999141693115 8,-4.960000038146973 7.564000129699707,-5.815999984741211 C7.181000232696533,-6.568999767303467 6.568999767303467,-7.181000232696533 5.815999984741211,-7.564000129699707 C4.960000038146973,-8 3.8399999141693115,-8 1.600000023841858,-8 C1.600000023841858,-8 -1.600000023841858,-8 -1.600000023841858,-8 C-3.8399999141693115,-8 -4.960000038146973,-8 -5.815999984741211,-7.564000129699707 C-6.568999767303467,-7.181000232696533 -7.181000232696533,-6.568999767303467 -7.564000129699707,-5.815999984741211z"></path></g></g><g style="display: block;" transform="matrix(1,0,0,1,8,15.5)" opacity="1"><g opacity="1" transform="matrix(1,0,0,1,0,0)"><path stroke-linecap="butt" stroke-linejoin="miter" fill-opacity="0" stroke-miterlimit="4" stroke="rgb(255,255,255)" stroke-opacity="1" stroke-width="1.8" d=" M2,4.5 C3.2139999866485596,3.5880000591278076 4,2.135999917984009 4,0.5 C4,-2.260999917984009 1.7610000371932983,-4.5 -1,-4.5 C-2.125999927520752,-4.5 -3.1640000343322754,-4.127999782562256 -4,-3.5"></path></g></g><g clip-path="url(#__lottie_element_20)" style="display: block;" transform="matrix(1,0,0,1,15.25,8.75)" opacity="1"><g opacity="1" transform="matrix(1,0,0,1,0,0)"><path fill="rgb(255,255,255)" fill-opacity="1" d=" M0,-1.75 C0.9658250212669373,-1.75 1.75,-0.9658250212669373 1.75,0 C1.75,0.9658250212669373 0.9658250212669373,1.75 0,1.75 C-0.9658250212669373,1.75 -1.75,0.9658250212669373 -1.75,0 C-1.75,-0.9658250212669373 -0.9658250212669373,-1.75 0,-1.75z"></path></g></g><g style="display: block;" transform="matrix(1,0,0,1,8.60200023651123,14.75)" opacity="1"><g opacity="1" transform="matrix(1,0,0,1,0,0)"><path stroke-linecap="round" stroke-linejoin="round" fill-opacity="0" stroke="rgb(255,255,255)" stroke-opacity="1" stroke-width="1.8" d=" M2.3980000019073486,-1.75 C2.3980000019073486,-1.75 5.3979997634887695,-1.75 4.3979997634887695,-0.25 C3.3980000019073486,1.25 -2.2690000534057617,1.25 -4.6020002365112305,1.75"></path></g></g></g></svg>