<svg xmlns="http://www.w3.org/2000/svg" xmlns:xlink="http://www.w3.org/1999/xlink" viewBox="0 0 24 24" width="24" height="24" preserveAspectRatio="xMidYMid meet"><defs><clipPath id="__lottie_element_88"><rect width="24" height="24" x="0" y="0"></rect></clipPath></defs><g clip-path="url(#__lottie_element_88)"><g style="display: block;" transform="matrix(1,0,0,1,12,14)" opacity="1"><g opacity="1" transform="matrix(1,0,0,1,0,0)"><path stroke-linecap="butt" stroke-linejoin="miter" fill-opacity="0" stroke-miterlimit="4" stroke="rgb(255,255,255)" stroke-opacity="1" stroke-width="2" d=" M0,2 C0,2 0,-2 0,-2"></path></g></g><g style="display: block;" transform="matrix(1,0,0,1,12,12)" opacity="1"><g opacity="1" transform="matrix(1,0,0,1,0,0)"><path fill="rgb(255,255,255)" fill-opacity="1" d=" M0,-1 C0.5519000291824341,-1 1,-0.5519000291824341 1,0 C1,0.5519000291824341 0.5519000291824341,1 0,1 C-0.5519000291824341,1 -1,0.5519000291824341 -1,0 C-1,-0.5519000291824341 -0.5519000291824341,-1 0,-1z"></path></g></g><g style="display: block;" transform="matrix(1,0,0,1,13.5,10.5)" opacity="1"><g opacity="1" transform="matrix(1,0,0,1,0,0)"><path stroke-linecap="butt" stroke-linejoin="miter" fill-opacity="0" stroke-miterlimit="4" stroke="rgb(255,255,255)" stroke-opacity="1" stroke-width="2" d=" M-1.5,1.5 C-1.5,1.5 1.5,-1.5 1.5,-1.5"></path></g></g><g style="display: block;" transform="matrix(1,0,0,1,12.029000282287598,11.75)" opacity="1"><g opacity="1" transform="matrix(1,0,0,1,0,0)"><path stroke-linecap="butt" stroke-linejoin="miter" fill-opacity="0" stroke-miterlimit="4" stroke="rgb(255,255,255)" stroke-opacity="1" stroke-width="2" d=" M-8.470999717712402,1.25 C-7.97599983215332,5.4730000495910645 -4.385000228881836,8.75 -0.028999999165534973,8.75 C4.664999961853027,8.75 8.470999717712402,4.943999767303467 8.470999717712402,0.25 C8.470999717712402,-4.443999767303467 4.664999961853027,-8.25 -0.028999999165534973,-8.25 C-3.2760000228881836,-8.25 -6.0980000495910645,-6.429999828338623 -7.5289998054504395,-3.753999948501587 M-2.5290000438690186,-3.75 C-2.5290000438690186,-3.75 -7.5289998054504395,-3.75 -7.5289998054504395,-3.75 C-7.5289998054504395,-3.75 -7.5289998054504395,-8.75 -7.5289998054504395,-8.75"></path></g></g></g></svg>