<svg width="16" height="16" viewBox="0 0 24 24" fill="none" xmlns="http://www.w3.org/2000/svg" stroke-width="2"><path d="M19.2987 8.84667C15.3929 1.86808 5.44409 5.76837 7.08971 11.9099C8.01826 15.3753 12.8142 14.8641 13.2764 12.8592C13.6241 11.3504 10.2964 12.3528 10.644 10.844C11.1063 8.839 15.9022 8.32774 16.8307 11.793C18.5527 18.2196 7.86594 22.4049 4.71987 15.2225" stroke-width="5" stroke-linecap="round"></path><path d="M2 13.8236C4.5 22.6927 18 21.3284 18 14.0536C18 9.94886 11.9426 9.0936 10.7153 11.1725C9.79198 12.737 14.208 12.6146 13.2847 14.1791C12.0574 16.2581 6 15.4029 6 11.2982C6 3.68585 20.5 2.2251 22 11.0945" stroke="currentColor"></path></svg>